<svg width="41" height="41" viewBox="0 0 41 41" fill="none" xmlns="http://www.w3.org/2000/svg">
<g id="Iconly/Light/Add User">
<g id="Add User">
<path id="Stroke 1" fill-rule="evenodd" clip-rule="evenodd" d="M16.874 25.9774C10.3072 25.9774 4.69873 26.97 4.69873 30.947C4.69873 34.9222 10.2713 35.9524 16.874 35.9524C23.4409 35.9524 29.0493 34.9581 29.0493 30.9828C29.0493 27.0075 23.4767 25.9774 16.874 25.9774Z" stroke="#6850FF" stroke-width="2" stroke-linecap="round" stroke-linejoin="round"/>
<path id="Stroke 3" fill-rule="evenodd" clip-rule="evenodd" d="M16.874 20.3052C21.2063 20.3052 24.6776 16.8322 24.6776 12.5015C24.6776 8.16921 21.2063 4.69788 16.874 4.69788C12.5434 4.69788 9.07031 8.16921 9.07031 12.5015C9.07031 16.8322 12.5434 20.3052 16.874 20.3052Z" stroke="#6850FF" stroke-width="2" stroke-linecap="round" stroke-linejoin="round"/>
</g>
<circle id="Ellipse_739" cx="33" cy="18" r="4" stroke="#6850FF" stroke-width="2" stroke-linecap="round" stroke-linejoin="round"/>
<path id="Line_181" d="M36 21L39 24" stroke="#6850FF" stroke-width="2" stroke-linecap="round" stroke-linejoin="round"/>
</g>
</svg>
