<svg width="41" height="41" viewBox="0 0 41 41" fill="none" xmlns="http://www.w3.org/2000/svg">
<g id="Iconly/Light/Edit Square">
<g id="Edit Square">
<path id="Stroke 1" d="M19.633 4.76453H13.2455C7.9924 4.76453 4.69873 8.48357 4.69873 13.7487V27.9517C4.69873 33.2168 7.97702 36.9359 13.2455 36.9359H28.3199C33.5901 36.9359 36.8684 33.2168 36.8684 27.9517V21.0706" stroke="#FF5050" stroke-width="2" stroke-linecap="round" stroke-linejoin="round"/>
<path id="Stroke 3" fill-rule="evenodd" clip-rule="evenodd" d="M15.0813 18.6565L27.8477 5.89017C29.4381 4.30142 32.016 4.30142 33.6065 5.89017L35.6855 7.96921C37.276 9.55967 37.276 12.1393 35.6855 13.728L22.8576 26.5559C22.1624 27.2512 21.2194 27.6424 20.2354 27.6424H13.8359L13.9965 21.1849C14.0204 20.235 14.4082 19.3296 15.0813 18.6565Z" stroke="#FF5050" stroke-width="2" stroke-linecap="round" stroke-linejoin="round"/>
<path id="Stroke 5" d="M25.9077 7.86255L33.708 15.6628" stroke="#FF5050" stroke-width="2" stroke-linecap="round" stroke-linejoin="round"/>
</g>
</g>
</svg>
