<svg width="120" height="120" viewBox="0 0 120 120" fill="none" xmlns="http://www.w3.org/2000/svg">
<path fill-rule="evenodd" clip-rule="evenodd" d="M53.6816 0.287378C48.0845 0.891316 37.6839 3.54145 37.6839 4.36361C37.6839 4.58215 43.5383 19.947 43.6753 20.0885C43.7707 20.1869 57.7461 0.705382 57.963 0.171881C58.0371 -0.0103618 55.9096 0.0470023 53.6816 0.287378ZM61.3728 0.109749C61.3728 0.239087 75.1403 19.8298 75.512 20.2293C75.7436 20.4785 75.9742 19.9299 78.8267 12.3474C80.7246 7.30195 81.8368 4.14538 81.7465 4.06065C81.2502 3.5945 75.1522 1.81006 71.7559 1.13707C67.9635 0.38565 61.3728 -0.266424 61.3728 0.109749ZM52.4507 10.9127C48.5168 16.4665 45.2791 21.0864 45.2557 21.179C45.2309 21.277 48.1093 22.2509 52.1478 23.5111L59.0825 25.6749L66.4704 23.4846C74.4014 21.1335 74.077 21.2459 73.8851 20.9148C73.5772 20.3834 59.7501 0.820726 59.6804 0.817958C59.6379 0.816112 56.3846 5.3588 52.4507 10.9127ZM80.4588 12.8117C78.8155 17.2084 77.5003 20.8287 77.5361 20.8568C77.7975 21.0621 99.1703 15.842 99.5212 15.487L99.9057 15.0981L99.5045 14.7617C96.3901 12.1491 93.1642 9.83704 90.2777 8.14811C88.6938 7.22121 83.8703 4.81176 83.6064 4.81561C83.5184 4.81684 82.1021 8.41509 80.4588 12.8117ZM33.223 6.24417C28.9874 8.37126 25.8805 10.3761 22.0707 13.4404C19.78 15.2829 19.5529 15.5173 19.9444 15.6354C20.6203 15.8394 42.0443 20.9588 42.0748 20.9235C42.1668 20.8177 36.0476 4.9694 35.9149 4.9694C35.8303 4.96955 34.6189 5.54304 33.223 6.24417ZM19.225 17.3136C19.225 17.5255 22.313 42.7087 22.3427 42.7377C22.427 42.8206 36.2381 36.0069 36.3862 35.8093C36.6549 35.4508 41.8857 22.8043 41.8005 22.7191C41.6507 22.5693 19.225 17.1996 19.225 17.3136ZM15.7142 19.421C11.7956 23.7256 8.76385 28.1556 6.13807 33.4138C5.45386 34.784 4.91701 35.9225 4.94516 35.9437C5.19974 36.1361 20.4725 42.4305 20.5083 42.3577C20.5637 42.245 17.6206 18.0667 17.5121 17.7445C17.4652 17.6047 16.8201 18.2062 15.7142 19.421ZM102.569 18.3085C102.334 18.583 98.4519 41.9357 98.6144 42.0983C98.6785 42.1623 105.829 39.4931 113.481 36.5486C115.197 35.8883 115.177 36.1143 113.759 33.2831C111.191 28.1565 108.446 24.1279 104.499 19.6926C102.911 17.9083 102.911 17.9083 102.569 18.3085ZM86.4461 20.5629C79.2258 22.2606 77.1497 22.8004 77.1844 22.9713C77.255 23.319 80.9381 32.2496 81.0732 32.4004C81.1727 32.5114 90.8238 23.6829 95.2121 19.4665C96.6676 18.0681 97.4979 17.9643 86.4461 20.5629ZM91.8224 28.3046C87.2157 32.5912 83.4465 36.1644 83.4465 36.245C83.4465 36.3936 96.5717 42.7258 96.6694 42.6242C96.7486 42.5418 100.304 20.616 100.247 20.5592C100.22 20.5324 96.4291 24.0178 91.8224 28.3046ZM68.3982 24.6551C61.0982 26.8371 61.4495 26.7047 62.1637 27.0035C62.4478 27.1224 66.3267 28.8219 70.7834 30.7805C75.2402 32.7389 78.9815 34.3412 79.0976 34.3412C79.366 34.3412 79.6778 34.0333 79.6778 33.7683C79.6778 33.4772 75.192 22.6497 75.0796 22.6695C75.0282 22.6786 72.0217 23.5721 68.3982 24.6551ZM41.2401 28.7503C39.8729 32.0191 38.7791 34.7186 38.8095 34.7489C38.9088 34.8483 56.3743 26.8516 56.3441 26.7207C56.3129 26.5852 44.3926 22.8175 43.9737 22.8109C43.7922 22.8079 43.0625 24.3935 41.2401 28.7503ZM49.836 31.6632C44.8867 33.9147 40.7819 35.8085 40.7143 35.8717C40.5927 35.9854 58.7955 53.0268 59.0385 53.0268C59.1783 53.0268 77.6795 35.8539 77.6757 35.7278C77.6724 35.6166 59.569 27.6917 59.1648 27.6245C58.9697 27.5919 55.1535 29.2441 49.836 31.6632ZM3.50029 39.5335C1.57565 44.8796 0.340594 50.8751 0.0520196 56.2729C-0.0367369 57.9329 -0.0198162 58.2084 0.164465 58.0999C1.32368 57.4183 19.8298 44.1156 19.7354 44.0319C19.6015 43.9133 4.85395 37.7214 4.45108 37.6145C4.27018 37.5665 4.04422 38.0224 3.50029 39.5335ZM107.366 40.6674C102.925 42.3602 99.2304 43.8037 99.1569 43.875C99.0428 43.9859 119.645 57.8713 119.924 57.8713C120.179 57.8713 119.629 52.33 119.054 49.1052C118.336 45.0854 116.051 37.5422 115.563 37.5802C115.496 37.5854 111.808 38.9746 107.366 40.6674ZM71.1874 47.4636L61.0817 56.8716L61.0734 73.6898C61.0656 89.6433 61.079 90.503 61.3343 90.4113C61.4823 90.3583 66.1816 88.403 71.7771 86.0663L81.9508 81.8178L86.7316 71.0955L91.5125 60.3731L86.5544 49.2533C83.8274 43.1373 81.528 38.1157 81.4447 38.0943C81.3613 38.073 76.7455 42.2891 71.1874 47.4636ZM29.1239 41.3561L22.9663 44.3652L25.1335 50.9734C27.7491 58.9487 26.8739 59.3586 31.4918 47.9962C36.0939 36.6724 36.482 37.7604 29.1239 41.3561ZM83.6773 38.574C83.6773 38.6727 91.7469 56.8089 92.0379 57.3641C92.3174 57.8976 92.1773 58.2888 94.2811 51.1045C95.309 47.5942 96.1752 44.6472 96.2058 44.5557C96.2529 44.4148 84.1249 38.4913 83.7926 38.493C83.7291 38.4933 83.6773 38.5297 83.6773 38.574ZM32.7075 49.5147L28.2849 60.3914L32.9192 70.9446C35.4679 76.7488 37.6019 81.5762 37.6611 81.6721C37.754 81.8224 55.8193 89.9952 56.6201 90.2494C56.9054 90.3398 56.9119 89.9692 56.9119 73.5864V56.831L47.2208 47.8112C41.8906 42.8503 37.4397 38.7569 37.3299 38.7147C37.1893 38.6607 35.8198 41.8605 32.7075 49.5147ZM11.347 52.2433C5.87196 56.1422 1.31692 59.4087 1.22462 59.5022C1.0808 59.6479 20.4297 73.6882 21.1607 73.9687C21.2733 74.0118 21.5205 73.5747 21.8006 72.8373C22.0516 72.1763 23.2089 69.0965 24.3719 65.9933L26.4867 60.351L23.9903 52.8441C22.6173 48.7153 21.4506 45.2961 21.3977 45.2458C21.3448 45.1955 16.8221 48.3444 11.347 52.2433ZM97.772 45.3856C97.7374 45.4436 96.7212 48.8471 95.5139 52.9489L93.3188 60.4068L95.5865 67.2144C97.1516 71.9126 97.91 73.9897 98.034 73.918C100.524 72.477 119.342 59.6305 119.182 59.4805C118.705 59.0338 97.8291 45.2901 97.772 45.3856ZM0.0437131 63.3482C0.286755 69.1326 2.82978 80.7471 4.14251 82.0694C4.23804 82.1656 19.709 75.5765 19.9615 75.3321C20.0101 75.285 0.350131 61.2145 0.101397 61.1183C0.000180915 61.0792 -0.0195086 61.8448 0.0437131 63.3482ZM109.563 68.2242C103.961 71.9613 99.3962 75.0836 99.4199 75.1626C99.487 75.3859 115.702 82.2035 115.834 82.0635C116.341 81.5245 118.324 74.6911 118.972 71.2511C119.682 67.4769 120.249 61.3917 119.888 61.4189C119.811 61.4246 115.165 64.4871 109.563 68.2242ZM27.345 62.8882C26.9343 63.6255 23.0486 74.5187 23.1589 74.6237C23.4145 74.8673 35.2227 80.6113 35.2227 80.4921C35.2227 80.0613 27.4519 62.6963 27.345 62.8882ZM88.3325 71.6649C83.727 82.0039 83.4101 81.1087 90.4146 77.5461L96.2465 74.5799L94.3087 68.7631C91.987 61.794 92.9342 61.334 88.3325 71.6649ZM22.157 76.9923C21.493 80.2691 17.3909 101.611 17.4195 101.64C17.4709 101.691 41.8307 96.9928 41.9002 96.9184C41.9316 96.8848 40.7014 93.7552 39.1667 89.9636L36.3764 83.0699L30.4541 80.1444C27.1969 78.5353 24.0338 76.989 23.425 76.7082L22.3181 76.1975L22.157 76.9923ZM89.9072 79.6878L83.2927 83.044L80.327 89.9332C78.6958 93.7223 77.3939 96.8552 77.4339 96.895C77.5118 96.973 102.18 101.408 102.22 101.351C102.28 101.264 96.6914 76.3265 96.612 76.329C96.5623 76.3304 93.5451 77.842 89.9072 79.6878ZM98.5982 76.9357C98.5982 77.0729 103.774 100.503 103.88 100.846C104.023 101.309 108.925 95.0297 110.938 91.8044C112.198 89.7848 115.057 84.3361 115.057 83.9544C115.057 83.7906 109.295 81.2772 99.0981 76.9935C98.8073 76.8712 98.5982 76.8471 98.5982 76.9357ZM12.4952 80.4344C8.32853 82.2595 4.91932 83.8387 4.91932 83.9439C4.91932 84.2298 7.13116 88.6472 8.1124 90.3212C10.7939 94.8951 15.6123 101.1 15.8653 100.304C15.9301 100.1 16.9576 94.8811 18.1487 88.7064C19.3396 82.5317 20.3437 77.3932 20.3799 77.2874C20.4983 76.9424 20.1573 77.0785 12.4952 80.4344ZM38.7606 84.297C38.7606 84.4444 43.6733 96.6672 43.7727 96.7672C43.8074 96.8023 46.7123 95.8055 50.2278 94.5525C53.7431 93.2994 56.5641 92.2201 56.4964 92.1538C56.3998 92.059 41.3718 85.2802 39.2606 84.3789C38.9857 84.2615 38.7606 84.2246 38.7606 84.297ZM71.1068 88.1455C65.9274 90.3149 61.6876 92.1393 61.685 92.1998C61.6775 92.3799 75.3945 96.819 75.5254 96.6786C75.6126 96.5851 80.1552 86.1032 80.8632 84.3618C81.0052 84.0124 80.5963 84.1711 71.1068 88.1455ZM52.0146 95.6997C44.3306 98.4492 44.9128 98.1847 45.3172 98.7431C45.4849 98.9747 48.763 103.647 52.6022 109.126C56.4412 114.605 59.6344 119.068 59.6981 119.045C59.7619 119.022 63.0738 114.332 67.0576 108.622L74.3014 98.2414L66.7218 95.7451C57.7253 92.7819 60.1479 92.7894 52.0146 95.6997ZM29.8821 100.994C23.6874 102.196 18.5746 103.224 18.52 103.278C18.2505 103.548 23.4741 107.859 26.6085 109.954C29.2703 111.733 35.0229 114.866 35.3983 114.741C35.5062 114.705 41.829 99.0662 41.836 98.8182C41.8396 98.6957 40.0874 99.0147 29.8821 100.994ZM77.6651 99.5102C77.8241 99.9119 79.2593 103.578 80.8543 107.658C82.4493 111.737 83.8252 115.076 83.912 115.078C84.6919 115.095 91.6997 111.154 94.7168 109.002C97.4261 107.069 101.677 103.471 101.674 103.113C101.673 103.017 77.9907 98.7513 77.5654 98.7709C77.428 98.7773 77.4556 98.9815 77.6651 99.5102ZM43.4839 99.3461C43.4421 99.4153 42.0088 103.001 40.2989 107.315C38.5888 111.629 37.1564 115.242 37.1156 115.343C36.9234 115.822 43.9445 118.065 48.2977 118.915C51.4304 119.526 56.6559 120.118 57.7081 119.98C58.1003 119.928 57.7813 119.444 50.9104 109.644C42.9357 98.2701 43.5879 99.1743 43.4839 99.3461ZM75.5387 99.4547C75.438 99.5762 72.1761 104.232 68.2902 109.801L61.2251 119.926L61.9527 119.978C64.2431 120.141 70.513 119.283 74.8324 118.214C77.0567 117.663 81.9978 115.997 82.0858 115.767C82.2586 115.317 75.7769 99.1677 75.5387 99.4547Z" fill="black"/>
<path fill-rule="evenodd" clip-rule="evenodd" d="M53.6816 0.287378C48.0845 0.891316 37.6839 3.54145 37.6839 4.36361C37.6839 4.58215 43.5383 19.947 43.6753 20.0885C43.7707 20.1869 57.7461 0.705382 57.963 0.171881C58.0371 -0.0103618 55.9096 0.0470023 53.6816 0.287378ZM61.3728 0.109749C61.3728 0.239087 75.1403 19.8298 75.512 20.2293C75.7436 20.4785 75.9742 19.9299 78.8267 12.3474C80.7246 7.30195 81.8368 4.14538 81.7465 4.06065C81.2502 3.5945 75.1522 1.81006 71.7559 1.13707C67.9635 0.38565 61.3728 -0.266424 61.3728 0.109749ZM52.4507 10.9127C48.5168 16.4665 45.2791 21.0864 45.2557 21.179C45.2309 21.277 48.1093 22.2509 52.1478 23.5111L59.0825 25.6749L66.4704 23.4846C74.4014 21.1335 74.077 21.2459 73.8851 20.9148C73.5772 20.3834 59.7501 0.820726 59.6804 0.817958C59.6379 0.816112 56.3846 5.3588 52.4507 10.9127ZM80.4588 12.8117C78.8155 17.2084 77.5003 20.8287 77.5361 20.8568C77.7975 21.0621 99.1703 15.842 99.5212 15.487L99.9057 15.0981L99.5045 14.7617C96.3901 12.1491 93.1642 9.83704 90.2777 8.14811C88.6938 7.22121 83.8703 4.81176 83.6064 4.81561C83.5184 4.81684 82.1021 8.41509 80.4588 12.8117ZM33.223 6.24417C28.9874 8.37126 25.8805 10.3761 22.0707 13.4404C19.78 15.2829 19.5529 15.5173 19.9444 15.6354C20.6203 15.8394 42.0443 20.9588 42.0748 20.9235C42.1668 20.8177 36.0476 4.9694 35.9149 4.9694C35.8303 4.96955 34.6189 5.54304 33.223 6.24417ZM19.225 17.3136C19.225 17.5255 22.313 42.7087 22.3427 42.7377C22.427 42.8206 36.2381 36.0069 36.3862 35.8093C36.6549 35.4508 41.8857 22.8043 41.8005 22.7191C41.6507 22.5693 19.225 17.1996 19.225 17.3136ZM15.7142 19.421C11.7956 23.7256 8.76385 28.1556 6.13807 33.4138C5.45386 34.784 4.91701 35.9225 4.94516 35.9437C5.19974 36.1361 20.4725 42.4305 20.5083 42.3577C20.5637 42.245 17.6206 18.0667 17.5121 17.7445C17.4652 17.6047 16.8201 18.2062 15.7142 19.421ZM102.569 18.3085C102.334 18.583 98.4519 41.9357 98.6144 42.0983C98.6785 42.1623 105.829 39.4931 113.481 36.5486C115.197 35.8883 115.177 36.1143 113.759 33.2831C111.191 28.1565 108.446 24.1279 104.499 19.6926C102.911 17.9083 102.911 17.9083 102.569 18.3085ZM86.4461 20.5629C79.2258 22.2606 77.1497 22.8004 77.1844 22.9713C77.255 23.319 80.9381 32.2496 81.0732 32.4004C81.1727 32.5114 90.8238 23.6829 95.2121 19.4665C96.6676 18.0681 97.4979 17.9643 86.4461 20.5629ZM91.8224 28.3046C87.2157 32.5912 83.4465 36.1644 83.4465 36.245C83.4465 36.3936 96.5717 42.7258 96.6694 42.6242C96.7486 42.5418 100.304 20.616 100.247 20.5592C100.22 20.5324 96.4291 24.0178 91.8224 28.3046ZM68.3982 24.6551C61.0982 26.8371 61.4495 26.7047 62.1637 27.0035C62.4478 27.1224 66.3267 28.8219 70.7834 30.7805C75.2402 32.7389 78.9815 34.3412 79.0976 34.3412C79.366 34.3412 79.6778 34.0333 79.6778 33.7683C79.6778 33.4772 75.192 22.6497 75.0796 22.6695C75.0282 22.6786 72.0217 23.5721 68.3982 24.6551ZM41.2401 28.7503C39.8729 32.0191 38.7791 34.7186 38.8095 34.7489C38.9088 34.8483 56.3743 26.8516 56.3441 26.7207C56.3129 26.5852 44.3926 22.8175 43.9737 22.8109C43.7922 22.8079 43.0625 24.3935 41.2401 28.7503ZM49.836 31.6632C44.8867 33.9147 40.7819 35.8085 40.7143 35.8717C40.5927 35.9854 58.7955 53.0268 59.0385 53.0268C59.1783 53.0268 77.6795 35.8539 77.6757 35.7278C77.6724 35.6166 59.569 27.6917 59.1648 27.6245C58.9697 27.5919 55.1535 29.2441 49.836 31.6632ZM3.50029 39.5335C1.57565 44.8796 0.340594 50.8751 0.0520196 56.2729C-0.0367369 57.9329 -0.0198162 58.2084 0.164465 58.0999C1.32368 57.4183 19.8298 44.1156 19.7354 44.0319C19.6015 43.9133 4.85395 37.7214 4.45108 37.6145C4.27018 37.5665 4.04422 38.0224 3.50029 39.5335ZM107.366 40.6674C102.925 42.3602 99.2304 43.8037 99.1569 43.875C99.0428 43.9859 119.645 57.8713 119.924 57.8713C120.179 57.8713 119.629 52.33 119.054 49.1052C118.336 45.0854 116.051 37.5422 115.563 37.5802C115.496 37.5854 111.808 38.9746 107.366 40.6674ZM71.1874 47.4636L61.0817 56.8716L61.0734 73.6898C61.0656 89.6433 61.079 90.503 61.3343 90.4113C61.4823 90.3583 66.1816 88.403 71.7771 86.0663L81.9508 81.8178L86.7316 71.0955L91.5125 60.3731L86.5544 49.2533C83.8274 43.1373 81.528 38.1157 81.4447 38.0943C81.3613 38.073 76.7455 42.2891 71.1874 47.4636ZM29.1239 41.3561L22.9663 44.3652L25.1335 50.9734C27.7491 58.9487 26.8739 59.3586 31.4918 47.9962C36.0939 36.6724 36.482 37.7604 29.1239 41.3561ZM83.6773 38.574C83.6773 38.6727 91.7469 56.8089 92.0379 57.3641C92.3174 57.8976 92.1773 58.2888 94.2811 51.1045C95.309 47.5942 96.1752 44.6472 96.2058 44.5557C96.2529 44.4148 84.1249 38.4913 83.7926 38.493C83.7291 38.4933 83.6773 38.5297 83.6773 38.574ZM32.7075 49.5147L28.2849 60.3914L32.9192 70.9446C35.4679 76.7488 37.6019 81.5762 37.6611 81.6721C37.754 81.8224 55.8193 89.9952 56.6201 90.2494C56.9054 90.3398 56.9119 89.9692 56.9119 73.5864V56.831L47.2208 47.8112C41.8906 42.8503 37.4397 38.7569 37.3299 38.7147C37.1893 38.6607 35.8198 41.8605 32.7075 49.5147ZM11.347 52.2433C5.87196 56.1422 1.31692 59.4087 1.22462 59.5022C1.0808 59.6479 20.4297 73.6882 21.1607 73.9687C21.2733 74.0118 21.5205 73.5747 21.8006 72.8373C22.0516 72.1763 23.2089 69.0965 24.3719 65.9933L26.4867 60.351L23.9903 52.8441C22.6173 48.7153 21.4506 45.2961 21.3977 45.2458C21.3448 45.1955 16.8221 48.3444 11.347 52.2433ZM97.772 45.3856C97.7374 45.4436 96.7212 48.8471 95.5139 52.9489L93.3188 60.4068L95.5865 67.2144C97.1516 71.9126 97.91 73.9897 98.034 73.918C100.524 72.477 119.342 59.6305 119.182 59.4805C118.705 59.0338 97.8291 45.2901 97.772 45.3856ZM0.0437131 63.3482C0.286755 69.1326 2.82978 80.7471 4.14251 82.0694C4.23804 82.1656 19.709 75.5765 19.9615 75.3321C20.0101 75.285 0.350131 61.2145 0.101397 61.1183C0.000180915 61.0792 -0.0195086 61.8448 0.0437131 63.3482ZM109.563 68.2242C103.961 71.9613 99.3962 75.0836 99.4199 75.1626C99.487 75.3859 115.702 82.2035 115.834 82.0635C116.341 81.5245 118.324 74.6911 118.972 71.2511C119.682 67.4769 120.249 61.3917 119.888 61.4189C119.811 61.4246 115.165 64.4871 109.563 68.2242ZM27.345 62.8882C26.9343 63.6255 23.0486 74.5187 23.1589 74.6237C23.4145 74.8673 35.2227 80.6113 35.2227 80.4921C35.2227 80.0613 27.4519 62.6963 27.345 62.8882ZM88.3325 71.6649C83.727 82.0039 83.4101 81.1087 90.4146 77.5461L96.2465 74.5799L94.3087 68.7631C91.987 61.794 92.9342 61.334 88.3325 71.6649ZM22.157 76.9923C21.493 80.2691 17.3909 101.611 17.4195 101.64C17.4709 101.691 41.8307 96.9928 41.9002 96.9184C41.9316 96.8848 40.7014 93.7552 39.1667 89.9636L36.3764 83.0699L30.4541 80.1444C27.1969 78.5353 24.0338 76.989 23.425 76.7082L22.3181 76.1975L22.157 76.9923ZM89.9072 79.6878L83.2927 83.044L80.327 89.9332C78.6958 93.7223 77.3939 96.8552 77.4339 96.895C77.5118 96.973 102.18 101.408 102.22 101.351C102.28 101.264 96.6914 76.3265 96.612 76.329C96.5623 76.3304 93.5451 77.842 89.9072 79.6878ZM98.5982 76.9357C98.5982 77.0729 103.774 100.503 103.88 100.846C104.023 101.309 108.925 95.0297 110.938 91.8044C112.198 89.7848 115.057 84.3361 115.057 83.9544C115.057 83.7906 109.295 81.2772 99.0981 76.9935C98.8073 76.8712 98.5982 76.8471 98.5982 76.9357ZM12.4952 80.4344C8.32853 82.2595 4.91932 83.8387 4.91932 83.9439C4.91932 84.2298 7.13116 88.6472 8.1124 90.3212C10.7939 94.8951 15.6123 101.1 15.8653 100.304C15.9301 100.1 16.9576 94.8811 18.1487 88.7064C19.3396 82.5317 20.3437 77.3932 20.3799 77.2874C20.4983 76.9424 20.1573 77.0785 12.4952 80.4344ZM38.7606 84.297C38.7606 84.4444 43.6733 96.6672 43.7727 96.7672C43.8074 96.8023 46.7123 95.8055 50.2278 94.5525C53.7431 93.2994 56.5641 92.2201 56.4964 92.1538C56.3998 92.059 41.3718 85.2802 39.2606 84.3789C38.9857 84.2615 38.7606 84.2246 38.7606 84.297ZM71.1068 88.1455C65.9274 90.3149 61.6876 92.1393 61.685 92.1998C61.6775 92.3799 75.3945 96.819 75.5254 96.6786C75.6126 96.5851 80.1552 86.1032 80.8632 84.3618C81.0052 84.0124 80.5963 84.1711 71.1068 88.1455ZM52.0146 95.6997C44.3306 98.4492 44.9128 98.1847 45.3172 98.7431C45.4849 98.9747 48.763 103.647 52.6022 109.126C56.4412 114.605 59.6344 119.068 59.6981 119.045C59.7619 119.022 63.0738 114.332 67.0576 108.622L74.3014 98.2414L66.7218 95.7451C57.7253 92.7819 60.1479 92.7894 52.0146 95.6997ZM29.8821 100.994C23.6874 102.196 18.5746 103.224 18.52 103.278C18.2505 103.548 23.4741 107.859 26.6085 109.954C29.2703 111.733 35.0229 114.866 35.3983 114.741C35.5062 114.705 41.829 99.0662 41.836 98.8182C41.8396 98.6957 40.0874 99.0147 29.8821 100.994ZM77.6651 99.5102C77.8241 99.9119 79.2593 103.578 80.8543 107.658C82.4493 111.737 83.8252 115.076 83.912 115.078C84.6919 115.095 91.6997 111.154 94.7168 109.002C97.4261 107.069 101.677 103.471 101.674 103.113C101.673 103.017 77.9907 98.7513 77.5654 98.7709C77.428 98.7773 77.4556 98.9815 77.6651 99.5102ZM43.4839 99.3461C43.4421 99.4153 42.0088 103.001 40.2989 107.315C38.5888 111.629 37.1564 115.242 37.1156 115.343C36.9234 115.822 43.9445 118.065 48.2977 118.915C51.4304 119.526 56.6559 120.118 57.7081 119.98C58.1003 119.928 57.7813 119.444 50.9104 109.644C42.9357 98.2701 43.5879 99.1743 43.4839 99.3461ZM75.5387 99.4547C75.438 99.5762 72.1761 104.232 68.2902 109.801L61.2251 119.926L61.9527 119.978C64.2431 120.141 70.513 119.283 74.8324 118.214C77.0567 117.663 81.9978 115.997 82.0858 115.767C82.2586 115.317 75.7769 99.1677 75.5387 99.4547Z" fill="url(#paint0_linear)"/>
<defs>
<linearGradient id="paint0_linear" x1="-17" y1="-11" x2="89.5" y2="134" gradientUnits="userSpaceOnUse">
<stop stop-color="#FF71C0"/>
<stop offset="1" stop-color="#5088FF"/>
</linearGradient>
</defs>
</svg>
