<svg width="41" height="41" viewBox="0 0 41 41" fill="none" xmlns="http://www.w3.org/2000/svg">
<path d="M26.1882 6H15.8118C14.9183 6 14.4733 7.08245 15.1085 7.71086L16.5999 9.18647C16.7897 9.37431 16.8966 9.63027 16.8966 9.89733V18.4112C16.8966 18.6371 16.8201 18.8563 16.6797 19.0331L5.28798 33.3781C4.76756 34.0334 5.23425 35 6.07109 35H35.9289C36.7658 35 37.2324 34.0334 36.712 33.3781L25.3203 19.0331C25.1799 18.8563 25.1034 18.6371 25.1034 18.4112V9.89733C25.1034 9.63027 25.2103 9.37431 25.4001 9.18647L26.8915 7.71086C27.5267 7.08245 27.0817 6 26.1882 6Z" stroke="#59D87C" stroke-width="2"/>
</svg>
