<svg width="41" height="41" viewBox="0 0 41 41" fill="none" xmlns="http://www.w3.org/2000/svg">
<g id="Iconly/Light/Ticket">
<g id="Ticket">
<g id="Group">
<path id="Stroke 1" d="M23.6598 7.26099V11.3952" stroke="#59D87C" stroke-width="2" stroke-linecap="round" stroke-linejoin="round"/>
<path id="Stroke 3" d="M23.6598 30.3402V33.7979" stroke="#59D87C" stroke-width="2" stroke-linecap="round" stroke-linejoin="round"/>
<path id="Stroke 6" d="M23.6598 24.4713V16.2355" stroke="#59D87C" stroke-width="2" stroke-linecap="round" stroke-linejoin="round"/>
</g>
<path id="Stroke 7" fill-rule="evenodd" clip-rule="evenodd" d="M31.9493 34.1667C35.062 34.1667 37.5832 31.6769 37.5832 28.6029V24.174C35.5235 24.174 33.8647 22.5359 33.8647 20.5018C33.8647 18.4677 35.5235 16.8278 37.5832 16.8278L37.5814 12.3972C37.5814 9.32318 35.0584 6.83337 31.9475 6.83337H9.05215C5.94123 6.83337 3.41829 9.32318 3.41829 12.3972L3.4165 16.9721C5.4762 16.9721 7.135 18.4677 7.135 20.5018C7.135 22.5359 5.4762 24.174 3.4165 24.174V28.6029C3.4165 31.6769 5.93767 34.1667 9.05037 34.1667H31.9493Z" stroke="#59D87C" stroke-width="2" stroke-linecap="round" stroke-linejoin="round"/>
</g>
</g>
</svg>
