<svg width="41" height="41" viewBox="0 0 41 41" fill="none" xmlns="http://www.w3.org/2000/svg">
<g id="Iconly/Light/Work">
<g id="Work">
<path id="Stroke 1" d="M4.79053 26.4399C4.79053 26.4399 5.03311 29.409 5.08949 30.3452C5.16465 31.6008 5.64982 33.0034 6.45957 33.9771C7.60244 35.3574 8.94861 35.8443 10.7458 35.8477C12.859 35.8511 28.2254 35.8511 30.3387 35.8477C32.1358 35.8443 33.482 35.3574 34.6249 33.9771C35.4346 33.0034 35.9198 31.6008 35.9967 30.3452C36.0513 29.409 36.2939 26.4399 36.2939 26.4399" stroke="#50ABFF" stroke-width="2" stroke-linecap="round" stroke-linejoin="round"/>
<path id="Stroke 3" d="M14.5142 9.10452V8.47073C14.5142 6.38656 16.202 4.69873 18.2862 4.69873H22.6971C24.7795 4.69873 26.4691 6.38656 26.4691 8.47073L26.4708 9.10452" stroke="#50ABFF" stroke-width="2" stroke-linecap="round" stroke-linejoin="round"/>
<path id="Stroke 5" d="M20.4914 28.492V26.2814" stroke="#50ABFF" stroke-width="2" stroke-linecap="round" stroke-linejoin="round"/>
<path id="Stroke 7" fill-rule="evenodd" clip-rule="evenodd" d="M4.69775 14.3313V20.2541C7.97434 22.4151 11.9001 23.9287 16.2085 24.5283C16.7244 22.6474 18.4208 21.2688 20.4828 21.2688C22.5123 21.2688 24.2428 22.6474 24.7245 24.5454C29.05 23.9458 32.9912 22.4322 36.2848 20.2541V14.3313C36.2848 11.4373 33.9564 9.10718 31.0625 9.10718H9.93721C7.0433 9.10718 4.69775 11.4373 4.69775 14.3313Z" stroke="#50ABFF" stroke-width="2" stroke-linecap="round" stroke-linejoin="round"/>
</g>
</g>
</svg>
