<svg width="41" height="41" viewBox="0 0 41 41" fill="none" xmlns="http://www.w3.org/2000/svg">
<path d="M33.3179 21.7813C33.3179 19.2472 32.5664 16.77 31.1586 14.663C29.7507 12.556 27.7497 10.9138 25.4085 9.94405C23.0673 8.9743 20.4912 8.72057 18.0058 9.21494C15.5204 9.70932 13.2374 10.9296 11.4456 12.7214C9.65371 14.5133 8.43344 16.7963 7.93907 19.2817C7.44469 21.767 7.69842 24.3432 8.66817 26.6844C9.63792 29.0256 11.2801 31.0266 13.3871 32.4345C15.4941 33.8423 17.9713 34.5938 20.5054 34.5938C23.9035 34.5938 27.1624 33.2439 29.5652 30.8411C31.968 28.4382 33.3179 25.1793 33.3179 21.7813Z" stroke="#2BC9C9" stroke-width="2" stroke-miterlimit="10"/>
<path d="M11.3805 7.30393C10.7081 6.72858 9.85344 6.41048 8.96853 6.40625L8.74511 6.41266C6.69912 6.53598 5.12478 8.32812 5.13039 10.4902C5.13039 11.5481 5.50355 12.0413 6.00164 12.6708C6.03258 12.7112 6.07165 12.7447 6.11634 12.7691C6.16103 12.7935 6.21034 12.8083 6.26109 12.8125H6.33156C6.37124 12.8118 6.41022 12.802 6.44549 12.7838C6.48076 12.7656 6.51137 12.7395 6.53496 12.7076L11.4013 7.92773C11.4429 7.88571 11.4753 7.83559 11.4967 7.78048C11.518 7.72538 11.5278 7.66647 11.5254 7.60742C11.5234 7.54959 11.5095 7.4928 11.4846 7.44058C11.4596 7.38836 11.4242 7.34184 11.3805 7.30393V7.30393Z" stroke="#2BC9C9" stroke-width="2" stroke-miterlimit="10"/>
<path d="M29.6189 7.30393C30.2913 6.72858 31.146 6.41048 32.0309 6.40625L32.2543 6.41266C34.3003 6.53598 35.8746 8.32812 35.869 10.4902C35.869 11.5481 35.4959 12.0413 34.9978 12.6708C34.9668 12.7111 34.9276 12.7444 34.883 12.7687C34.8383 12.793 34.789 12.8076 34.7383 12.8117H34.6679C34.6282 12.811 34.5892 12.8012 34.5539 12.783C34.5186 12.7648 34.488 12.7387 34.4645 12.7068L29.5981 7.92773C29.5566 7.88571 29.5241 7.83559 29.5027 7.78048C29.4814 7.72538 29.4716 7.66647 29.474 7.60742C29.476 7.54959 29.4899 7.4928 29.5148 7.44058C29.5398 7.38836 29.5752 7.34184 29.6189 7.30393V7.30393Z" stroke="#2BC9C9" stroke-width="2" stroke-miterlimit="10"/>
<path d="M20.5054 12.8125V21.7812H14.0991" stroke="#2BC9C9" stroke-width="2" stroke-linecap="round" stroke-linejoin="round"/>
<path d="M33.3179 34.5938L30.1147 31.3906" stroke="#2BC9C9" stroke-width="2" stroke-linecap="round" stroke-linejoin="round"/>
<path d="M7.69287 34.5938L10.896 31.3906" stroke="#2BC9C9" stroke-width="2" stroke-linecap="round" stroke-linejoin="round"/>
</svg>
