<svg width="41" height="41" viewBox="0 0 41 41" fill="none" xmlns="http://www.w3.org/2000/svg">
<g id="Iconly/Light/Chat">
<g id="Chat">
<path id="Combined Shape" fill-rule="evenodd" clip-rule="evenodd" d="M13.1462 22.8761C12.0447 22.8761 11.1499 21.9812 11.1499 20.8798C11.1499 19.7816 12.0447 18.8867 13.1462 18.8867C14.2477 18.8867 15.1425 19.7816 15.1425 20.8798C15.1425 21.9812 14.2477 22.8761 13.1462 22.8761ZM20.907 22.8761C19.8055 22.8761 18.9107 21.9812 18.9107 20.8798C18.9107 19.7816 19.8055 18.8867 20.907 18.8867C22.0085 18.8867 22.9033 19.7816 22.9033 20.8798C22.9033 21.9812 22.0085 22.8761 20.907 22.8761ZM26.6716 20.8798C26.6716 21.9812 27.5664 22.8761 28.6679 22.8761C29.7694 22.8761 30.6642 21.9812 30.6642 20.8798C30.6642 19.7816 29.7694 18.8867 28.6679 18.8867C27.5664 18.8867 26.6716 19.7816 26.6716 20.8798Z" fill="#8F00FF"/>
<path id="Stroke 7" fill-rule="evenodd" clip-rule="evenodd" d="M20.534 3.41663C10.6086 3.41663 3.4165 11.5246 3.4165 20.5256C3.4165 23.3999 4.25359 26.3581 5.72275 29.0613C5.99609 29.5078 6.03025 30.0707 5.84234 30.6028L4.69775 34.4352C4.4415 35.3591 5.22734 36.0418 6.09859 35.768L9.54942 34.7432C10.489 34.4352 11.2236 34.827 12.0948 35.3591C14.589 36.8288 17.6982 37.5833 20.4998 37.5833C28.9732 37.5833 37.5832 31.0305 37.5832 20.4743C37.5832 11.3706 30.2373 3.41663 20.534 3.41663Z" stroke="#8F00FF" stroke-width="2" stroke-linecap="round" stroke-linejoin="round"/>
</g>
</g>
</svg>
