<svg width="41" height="41" viewBox="0 0 41 41" fill="none" xmlns="http://www.w3.org/2000/svg">
<path fill-rule="evenodd" clip-rule="evenodd" d="M17 7H24C24.5523 7 25 7.44772 25 8V12H16V8C16 7.44772 16.4477 7 17 7ZM14 12V8C14 6.34315 15.3431 5 17 5H24C25.6569 5 27 6.34315 27 8V12H30C33.3137 12 36 14.6863 36 18V29C36 32.3137 33.3137 35 30 35H11C7.68629 35 5 32.3137 5 29V18C5 14.6863 7.68629 12 11 12H14ZM27 14H25H16H14H11C8.79086 14 7 15.7909 7 18V29C7 31.2091 8.79086 33 11 33H30C32.2091 33 34 31.2091 34 29V18C34 15.7909 32.2091 14 30 14H27ZM19.5 19C19.5 18.4477 19.9477 18 20.5 18C21.0523 18 21.5 18.4477 21.5 19V22H24.5C25.0523 22 25.5 22.4477 25.5 23C25.5 23.5523 25.0523 24 24.5 24H21.5V27C21.5 27.5523 21.0523 28 20.5 28C19.9477 28 19.5 27.5523 19.5 27V24H16.5C15.9477 24 15.5 23.5523 15.5 23C15.5 22.4477 15.9477 22 16.5 22H19.5V19Z" fill="#FF0000"/>
</svg>
