<svg width="41" height="41" viewBox="0 0 41 41" fill="none" xmlns="http://www.w3.org/2000/svg">
<g id="Iconly/Light/Star">
<g id="Star">
<path id="Star_2" fill-rule="evenodd" clip-rule="evenodd" d="M21.7201 5.87808L25.6766 13.8372C25.8748 14.2387 26.2575 14.5188 26.7016 14.5838L35.5593 15.8633C35.9181 15.9111 36.241 16.099 36.4613 16.386C36.8748 16.9242 36.8115 17.6861 36.3161 18.149L29.8962 24.3571C29.5699 24.6646 29.4247 25.1156 29.5101 25.5547L31.0476 34.315C31.1553 35.041 30.6598 35.721 29.9338 35.8388C29.6331 35.885 29.3256 35.8371 29.0523 35.7022L21.1632 31.5663C20.7669 31.351 20.292 31.351 19.8956 31.5663L11.9485 35.7244C11.2839 36.0626 10.4708 35.8115 10.1086 35.1606C9.97022 34.8975 9.92238 34.5986 9.97022 34.3065L11.5077 25.5461C11.5846 25.1088 11.4394 24.6595 11.1216 24.3503L4.66755 18.1439C4.14138 17.6212 4.13797 16.7704 4.66242 16.2443C4.66413 16.2425 4.66584 16.2391 4.66755 16.2374C4.88451 16.041 5.15101 15.9094 5.43972 15.8582L14.2991 14.5786C14.7416 14.5086 15.1225 14.2318 15.3241 13.8304L19.2772 5.87808C19.4361 5.55521 19.718 5.3075 20.0596 5.19475C20.403 5.08029 20.7788 5.10763 21.1017 5.26992C21.3665 5.40146 21.5835 5.615 21.7201 5.87808Z" stroke="#FFC450" stroke-width="2" stroke-linecap="round" stroke-linejoin="round"/>
</g>
</g>
</svg>
